<?xml version="1.0" encoding="utf-8"?>
<!-- Generator: Adobe Illustrator 22.0.1, SVG Export Plug-In . SVG Version: 6.00 Build 0)  -->
<svg version="1.1" id="レイヤー_1" xmlns="http://www.w3.org/2000/svg" xmlns:xlink="http://www.w3.org/1999/xlink" x="0px"
	 y="0px" viewBox="0 0 97.1 20" style="enable-background:new 0 0 97.1 20;" xml:space="preserve">
<style type="text/css">
	.st0{display:none;}
	.st1{fill:#FFFFFF;}
</style>
<g id="レイヤー_2_1_">
</g>
<g id="レイヤー_1_2_">
	<g id="レイヤー_1_1_" class="st0">
	</g>
	<g id="レイヤー_2_2_">
		<g>
			<g>
				<path class="st1" d="M34,2.9l4,13.9h-1.7l-0.6-2.2h-3.3l-0.6,2.2h-1.7L34,2.9z M35.2,13.1l-0.9-3.5L34,8l-0.3,1.6l-0.9,3.5H35.2
					z"/>
				<path class="st1" d="M42.2,14.8c0.3,0.1,0.5,0.3,0.8,0.5c0.3,0.1,0.7,0.2,1,0.2c0.2,0,0.5,0,0.7-0.1s0.4-0.1,0.5-0.3
					c0.2-0.1,0.2-0.3,0.3-0.5s0.2-0.4,0.2-0.7c0-0.2,0-0.4,0-0.6c0-0.2-0.2-0.4-0.2-0.6s-0.2-0.5-0.5-0.8s-0.4-0.6-0.7-0.9l-1.1-1.4
					c-0.2-0.4-0.5-0.6-0.7-1C42.3,8.3,42.2,8,42,7.7c-0.1-0.3-0.2-0.6-0.2-0.9c0-0.2-0.1-0.5-0.1-0.8c0-0.4,0-0.8,0.2-1.2
					c0.2-0.3,0.3-0.7,0.6-0.9c0.2-0.2,0.6-0.4,1-0.6s0.8-0.2,1.2-0.2c0.3,0,0.8,0.1,1.2,0.2s0.8,0.2,1.1,0.4l-0.7,1.4
					c-0.2-0.1-0.4-0.2-0.7-0.3c-0.2-0.1-0.5-0.2-0.8-0.2c-0.5,0-0.8,0.2-1.1,0.4c-0.3,0.2-0.4,0.7-0.4,1.1c0,0.1,0,0.2,0,0.4
					s0.1,0.3,0.2,0.4c0,0.1,0.2,0.4,0.3,0.6c0.1,0.2,0.3,0.4,0.5,0.6l1.6,2.1c0.2,0.2,0.4,0.6,0.6,0.8c0.2,0.2,0.3,0.5,0.5,0.8
					c0.2,0.2,0.2,0.6,0.3,0.9c0.1,0.3,0.1,0.6,0.1,0.9c0,0.5-0.1,0.9-0.2,1.3s-0.4,0.8-0.7,1s-0.7,0.5-1,0.6
					c-0.4,0.1-0.8,0.2-1.3,0.2s-1,0-1.5-0.2c-0.5-0.1-0.8-0.4-1.2-0.5L42.2,14.8z"/>
				<path class="st1" d="M52.1,3.3h1.6v7.5h3V3.3h1.6v13.5h-1.6v-4.6h-3v4.6h-1.6V3.3z"/>
				<path class="st1" d="M63.6,3.3h1.6v13.5h-1.6V3.3z"/>
				<path class="st1" d="M70.5,3.2c0.9-0.1,1.8,0.1,2.6,0.2c0.7,0.2,1.3,0.5,1.8,0.9c0.4,0.4,0.8,0.9,1.1,1.5s0.3,1.2,0.3,2
					c0,0.9-0.2,1.6-0.4,2.2s-0.8,1.2-1.4,1.6l2.3,5.1H75l-1.9-4.6c-0.3,0.1-0.6,0.1-0.9,0.2v4.4h-1.6L70.5,3.2L70.5,3.2z M72.1,10.9
					c0.3-0.1,0.7-0.1,1-0.2s0.6-0.4,0.8-0.6s0.4-0.6,0.5-0.9s0.2-0.8,0.2-1.2s0-1-0.2-1.4c-0.1-0.3-0.3-0.6-0.5-0.9
					s-0.5-0.4-0.8-0.6s-0.7-0.2-1-0.2V10.9z"/>
				<path class="st1" d="M83.7,2.9l3.9,13.9h-1.7l-0.6-2.2H82l-0.6,2.2h-1.7L83.7,2.9z M84.9,13.1L84,9.6L83.7,8l-0.3,1.6l-0.9,3.5
					H84.9z"/>
				<path class="st1" d="M91.9,14.8c0.3,0.1,0.6,0.3,0.8,0.5c0.3,0.1,0.7,0.2,1,0.2c0.2,0,0.4,0,0.7-0.1s0.4-0.1,0.6-0.3
					s0.2-0.3,0.3-0.5c0.1-0.2,0.2-0.4,0.2-0.7c0-0.2,0-0.4-0.1-0.6c-0.1-0.2-0.2-0.4-0.2-0.6s-0.2-0.5-0.4-0.8s-0.4-0.6-0.7-0.9
					L93,9.6c-0.2-0.4-0.5-0.6-0.7-1C92.1,8.3,92,8,91.9,7.7c-0.1-0.3-0.2-0.6-0.2-0.9c-0.1-0.2-0.1-0.5-0.1-0.8
					c0-0.4,0.1-0.8,0.2-1.2c0.2-0.3,0.3-0.7,0.6-0.9c0.2-0.2,0.6-0.4,0.9-0.6s0.8-0.2,1.2-0.2c0.3,0,0.8,0.1,1.2,0.2
					s0.8,0.2,1.1,0.4L96,5c-0.2-0.1-0.4-0.2-0.7-0.3c-0.2-0.1-0.5-0.2-0.8-0.2c-0.4,0-0.8,0.2-1.1,0.4c-0.2,0.3-0.3,0.7-0.3,1.1
					c0,0.1,0,0.2,0.1,0.4s0.1,0.3,0.2,0.4s0.2,0.4,0.3,0.6C93.8,7.6,94,7.8,94.1,8l1.6,2.1c0.2,0.2,0.4,0.6,0.6,0.8s0.3,0.5,0.4,0.8
					c0.2,0.2,0.2,0.6,0.3,0.9c0.1,0.3,0.1,0.6,0.1,0.9c0,0.5-0.1,0.9-0.2,1.3s-0.4,0.8-0.7,1c-0.3,0.3-0.7,0.5-1.1,0.6
					s-0.8,0.2-1.3,0.2s-1,0-1.4-0.2c-0.4-0.1-0.8-0.4-1.2-0.5L91.9,14.8z"/>
			</g>
			<g>
				<path class="st1" d="M1.5,20H0c0-4,2.8-7.1,7.3-8.2V8.3C2.8,7.1,0,4,0,0h1.5c0,4.1,3.5,6.2,6.7,6.9L8.9,7v5.9L8.3,13
					C5,13.7,1.5,15.9,1.5,20z"/>
				<path class="st1" d="M21.5,20H20c0-4.1-3.5-6.2-6.8-6.9L12.7,13V7l0.6-0.1c3.2-0.7,6.8-2.8,6.8-6.9h1.5c0,4-2.8,7.1-7.4,8.2v3.5
					C18.8,12.9,21.5,16,21.5,20z"/>
			</g>
		</g>
	</g>
</g>
</svg>
